#!OML:ASF F:\VICON\USERDATA\INSTALL\rory3\rory3.ASF
:FULLY-SPECIFIED
:DEGREES
402
root 0.59296 17.6282 46.6618 -2.49733 -0.818901 -0.482023
lowerback 9.16706 -1.87625 -2.4554
upperback -0.138866 -2.62993 2.53863
thorax -5.05803 -1.20628 4.38819
lowerneck -16.5588 -2.43373 -2.71746
upperneck 23.2868 -3.05234 1.38588
head 10.2374 -1.49054 0.529042
rclavicle -4.73853e-014 1.59028e-015
rhumerus -38.8991 -29.3008 -69.3347
rradius 19.8821
rwrist 13.4434
rhand -17.9485 23.6059
rfingers 7.12502
rthumb 8.32006 -6.21023
lclavicle -4.73853e-014 1.59028e-015
lhumerus -22.0925 -6.26267 82.9992
lradius 32.9668
lwrist 9.56988
lhand -34.0752 12.7904
lfingers 7.12502
lthumb -7.25216 42.6461
rfemur -28.1455 5.08281 22.8387
rtibia 29.2496
rfoot -3.20165 -4.46111
rtoes 6.25707
lfemur 12.6452 -4.39197 -23.2009
ltibia 32.4392
lfoot -7.69819 -6.88146
ltoes -23.9311
403
root 0.594365 17.6654 46.9458 -3.15336 -0.29858 0.210047
lowerback 8.61747 -2.02956 -2.76954
upperback 0.192201 -2.87412 2.22198
thorax -4.38092 -1.34539 4.22282
lowerneck -16.2987 -2.52051 -3.15726
upperneck 22.8558 -3.23443 2.09389
head 10.0581 -1.53131 0.830723
rclavicle 2.9445e-015 -1.82882e-014
rhumerus -39.0607 -30.1959 -68.6261
rradius 19.2634
rwrist 14.3067
rhand -17.832 24.3484
rfingers 7.12502
rthumb 8.43251 -5.46327
lclavicle 2.9445e-015 -1.82882e-014
lhumerus -22.4757 -5.78435 83.0928
lradius 32.9461
lwrist 9.06673
lhand -32.5019 14.0934
lfingers 7.12502
lthumb -5.73333 43.9959
rfemur -26.634 3.379 22.3683
rtibia 29.833
rfoot -4.17243 -3.46274
rtoes 6.33154
lfemur 12.7641 -4.13773 -23.9183
ltibia 34.5151
lfoot -5.76788 -8.20183
ltoes -22.7137
404
root 0.593461 17.6687 47.1056 -2.90835 -0.177207 0.400348
lowerback 8.82549 -2.03145 -2.59924
upperback -0.492422 -2.86959 2.08738
thorax -5.23068 -1.31728 4.01983
lowerneck -14.6487 -2.28039 -2.75921
upperneck 23.0731 -2.85962 1.30594
head 9.79247 -1.42779 0.554684
rclavicle -1.63578e-014 -1.98785e-015
rhumerus -40.3285 -29.7309 -68.0634
rradius 19.4565
rwrist 14.0113
rhand -17.5595 24.6973
rfingers 7.12502
rthumb 8.69546 -5.10361
lclavicle -1.63578e-014 -1.98785e-015
lhumerus -23.8634 -5.33557 83.242
lradius 33.2106
lwrist 7.76126
lhand -29.1037 18.7579
lfingers 7.12502
lthumb -2.45182 48.7235
rfemur -26.7583 2.74951 22.3208
rtibia 30.5125
rfoot -4.45802 -3.02693
rtoes 6.03921
lfemur 11.6008 -3.91367 -23.8837
ltibia 36.7036
lfoot -3.13558 -9.35909
ltoes -21.5669
405
root 0.526129 17.6694 47.2983 -3.0095 -0.927725 -1.00025
lowerback 8.89417 -1.84005 -1.91927
upperback -0.126581 -2.51744 2.63176
thorax -4.92037 -1.16648 4.1549
lowerneck -16.0855 -2.22257 -2.63322
upperneck 23.4804 -2.74137 1.17791
head 10.2052 -1.36802 0.48849
rclavicle -2.11954e-014 -1.63003e-014
rhumerus -39.5875 -30.0126 -68.4352
rradius 19.4714
rwrist 14.2523
rhand -17.4812 24.2938
rfingers 7.12502
rthumb 8.77101 -5.50395
lclavicle -2.11954e-014 -1.63003e-014
lhumerus -23.4582 -4.85143 83.2756
lradius 33.0665
lwrist 8.26605
lhand -29.804 17.6597
lfingers 7.12502
lthumb -3.1282 47.6165
rfemur -26.4051 4.2187 24.1334
rtibia 31.1673
rfoot -4.59569 -3.71854
rtoes 7.20162
lfemur 10.8192 -2.9555 -21.6957
ltibia 38.8542
lfoot -0.683839 -10.5531
ltoes -18.8103
406
root 0.504329 17.691 47.4932 -3.13223 -0.674204 -0.997612
lowerback 8.5259 -1.84567 -1.82355
upperback 0.172214 -2.51903 2.5572
thorax -4.40804 -1.18507 3.99512
lowerneck -16.3299 -2.40164 -2.96314
upperneck 23.0627 -3.01547 1.67627
head 10.1215 -1.46201 0.680582
rclavicle 5.53367e-014 1.15295e-014
rhumerus -39.0226 -30.3414 -68.6826
rradius 19.3117
rwrist 14.0943
rhand -17.4355 23.5037
rfingers 7.12502
rthumb 8.81511 -6.29222
lclavicle 5.53367e-014 1.15295e-014
lhumerus -23.2972 -4.89698 83.4527
lradius 32.967
lwrist 8.90706
lhand -32.0142 15.4729
lfingers 7.12502
lthumb -5.26243 45.3876
rfemur -25.7571 3.92914 24.2786
rtibia 31.5381
rfoot -4.86641 -3.58618
rtoes 8.9463
lfemur 9.62695 -2.58845 -21.3529
ltibia 41.3025
lfoot 1.53959 -11.7313
ltoes -16.6391
407
root 0.482942 17.7212 47.6949 -3.27477 -0.479054 -1.20645
lowerback 8.57606 -1.91098 -1.63258
upperback 0.0993546 -2.58487 2.59638
thorax -4.51356 -1.21834 3.94074
lowerneck -16.185 -2.36099 -2.8412
upperneck 23.1963 -2.95338 1.49853
head 10.1352 -1.44488 0.607274
rclavicle 1.36354e-014 1.19271e-015
rhumerus -38.8691 -29.8435 -68.9304
rradius 19.1107
rwrist 13.6032
rhand -17.7071 23.4089
rfingers 7.12502
rthumb 8.55302 -6.3979
lclavicle 1.36354e-014 1.19271e-015
lhumerus -23.938 -4.72674 83.6522
lradius 32.9814
lwrist 9.32475
lhand -32.9505 14.6126
lfingers 7.12502
lthumb -6.16638 44.5028
rfemur -24.8663 3.62092 24.6894
rtibia 31.6075
rfoot -5.12497 -3.57818
rtoes 10.4274
lfemur 8.45735 -2.22513 -20.8328
ltibia 43.7939
lfoot 3.24586 -13.2189
ltoes -17.1548
408
root 0.466376 17.7488 47.8845 -3.45582 -0.285215 -1.61711
lowerback 8.59115 -1.94375 -1.12915
upperback 0.14258 -2.57687 2.63804
thorax -4.49763 -1.22549 3.69846
lowerneck -15.9962 -2.35359 -2.72066
upperneck 23.2391 -2.94042 1.33721
head 10.1097 -1.44851 0.533959
rclavicle -4.30058e-014 2.0276e-014
rhumerus -38.7199 -29.3537 -69.3073
rradius 19.2449
rwrist 13.0224
rhand -17.8357 23.1745
rfingers 7.12502
rthumb 8.42894 -6.63727
lclavicle -4.30058e-014 2.0276e-014
lhumerus -24.2745 -4.57546 83.7553
lradius 32.9678
lwrist 8.9533
lhand -32.3464 15.9665
lfingers 7.12502
lthumb -5.58323 45.8729
rfemur -23.9097 3.29452 25.3044
rtibia 31.5494
rfoot -5.29118 -3.55732
rtoes 11.0257
lfemur 7.45107 -2.1407 -20.1249
ltibia 46.2836
lfoot 5.14687 -14.3028
ltoes -14.4755
409
root 0.455028 17.7792 48.0679 -3.40431 -0.0395259 -2.18885
lowerback 8.69775 -2.02215 -0.390165
upperback -0.0552666 -2.5972 2.7533
thorax -4.79035 -1.24429 3.41685
lowerneck -15.7245 -2.2756 -2.6891
upperneck 23.3348 -2.81384 1.20256
head 10.0868 -1.40499 0.500946
rclavicle 1.39087e-014 -6.75868e-015
rhumerus -38.9291 -28.7738 -69.4669
rradius 19.581
rwrist 12.3527
rhand -17.6285 23.3832
rfingers 7.12502
rthumb 8.62887 -6.42043
lclavicle 1.39087e-014 -6.75868e-015
lhumerus -24.8963 -4.63999 83.9956
lradius 33.0351
lwrist 9.2614
lhand -32.2015 16.2826
lfingers 7.12502
lthumb -5.44332 46.1927
rfemur -23.0956 2.90995 26.0352
rtibia 31.2832
rfoot -5.48791 -3.4653
rtoes 11.1086
lfemur 6.01037 -2.142 -19.2382
ltibia 48.8731
lfoot 7.5518 -14.8903
ltoes -9.21906
410
root 0.421274 17.8085 48.26 -3.34219 -0.133475 -3.24412
lowerback 8.02504 -1.99922 0.507728
upperback 0.30718 -2.48713 3.03807
thorax -4.06713 -1.21732 3.15184
lowerneck -15.9942 -2.57728 -3.30937
upperneck 22.8173 -3.27671 2.08214
head 9.99061 -1.56738 0.849628
rclavicle -1.87417e-014 -3.97569e-016
rhumerus -38.2029 -28.8767 -69.9906
rradius 19.699
rwrist 12.2348
rhand -17.5739 23.6493
rfingers 7.12502
rthumb 8.68159 -6.15223
lclavicle -1.87417e-014 -3.97569e-016
lhumerus -24.4762 -4.68279 84.1179
lradius 32.7054
lwrist 9.84357
lhand -32.7769 15.2635
lfingers 7.12502
lthumb -5.99882 45.1586
rfemur -22.2099 3.25311 27.3756
rtibia 30.9115
rfoot -5.75069 -3.94283
rtoes 10.5453
lfemur 4.4213 -1.80199 -17.6763
ltibia 51.5125
lfoot 9.69816 -15.6265
ltoes -4.65122
411
root 0.396825 17.8314 48.4376 -3.27004 -0.155224 -3.81712
lowerback 8.28494 -1.99014 0.95824
upperback 0.0537648 -2.40991 3.22396
thorax -4.49183 -1.1812 3.10437
lowerneck -16.5132 -2.8958 -3.7276
upperneck 23.3564 -3.70329 2.45731
head 10.3136 -1.75171 0.9876
rclavicle 3.10042e-014 -3.57812e-015
rhumerus -38.1825 -28.3441 -70.1951
rradius 19.7104
rwrist 11.9738
rhand -17.8559 23.483
rfingers 7.12502
rthumb 8.40943 -6.32954
lclavicle 3.10042e-014 -3.57812e-015
lhumerus -25.0179 -4.53375 84.3751
lradius 32.4075
lwrist 9.887
lhand -33.2636 14.1268
lfingers 7.12502
lthumb -6.46873 44.0081
rfemur -21.3139 3.46034 28.1431
rtibia 30.3095
rfoot -5.85913 -4.22725
rtoes 11.0208
lfemur 2.81035 -1.44698 -16.7426
ltibia 54.1266
lfoot 10.9752 -16.4055
ltoes -2.42312
412
root 0.387789 17.8555 48.6041 -3.15483 -0.0974418 -3.79421
lowerback 8.52356 -1.98376 1.00284
upperback -0.107053 -2.38622 3.18925
thorax -4.79836 -1.16747 3.05674
lowerneck -16.2648 -2.43675 -3.01727
upperneck 23.5154 -3.03111 1.56541
head 10.272 -1.48756 0.648481
rclavicle -9.63484e-015 2.46493e-014
rhumerus -37.8723 -28.2251 -70.344
rradius 19.6084
rwrist 12.2983
rhand -17.8913 22.9724
rfingers 7.12502
rthumb 8.37522 -6.84154
lclavicle -9.63484e-015 2.46493e-014
lhumerus -25.3739 -4.04832 84.4027
lradius 32.2376
lwrist 8.94958
lhand -32.2786 16.3467
lfingers 7.12502
lthumb -5.51768 46.2548
rfemur -20.7186 3.26563 28.2319
rtibia 30.1228
rfoot -6.04058 -4.09239
rtoes 11.8634
lfemur 1.1832 -1.14827 -16.6215
ltibia 56.416
lfoot 12.6106 -16.1518
ltoes 1.83926
413
root 0.338678 17.8708 48.7873 -3.6496 -0.695717 -5.47743
lowerback 9.15554 -1.81544 2.27203
upperback -0.00765419 -1.98491 3.67224
thorax -5.09519 -0.992278 2.82283
lowerneck -16.4808 -2.50453 -2.91865
upperneck 23.6795 -3.14531 1.54539
head 10.3737 -1.53198 0.606485
rclavicle 1.2424e-016 1.07344e-014
rhumerus -37.7234 -28.0563 -70.5761
rradius 19.7254
rwrist 12.3762
rhand -17.8815 22.9238
rfingers 7.12502
rthumb 8.38474 -6.88975
lclavicle 1.2424e-016 1.07344e-014
lhumerus -25.81 -4.18223 84.6029
lradius 32.0288
lwrist 9.41114
lhand -31.5114 16.2843
lfingers 7.12502
lthumb -4.77697 46.2104
rfemur -19.3338 4.22867 30.3889
rtibia 29.9214
rfoot -6.27663 -4.69864
rtoes 12.2916
lfemur 0.319371 -0.23834 -14.1851
ltibia 58.6091
lfoot 13.7295 -15.5286
ltoes 5.63036
414
root 0.362554 17.8968 48.9468 -3.25719 0.176924 -3.86428
lowerback 9.14625 -1.92151 1.32883
upperback -0.464269 -2.24704 3.00408
thorax -5.55003 -1.10221 2.70218
lowerneck -16.1819 -2.67748 -3.13674
upperneck 23.6702 -3.43886 1.92535
head 10.3322 -1.64335 0.740616
rclavicle -1.94592e-014 -1.23246e-014
rhumerus -37.9155 -27.358 -70.9474
rradius 20.0904
rwrist 11.6476
rhand -17.5354 23.2961
rfingers 7.12502
rthumb 8.7187 -6.50388
lclavicle -1.94592e-014 -1.23246e-014
lhumerus -26.3334 -4.2369 84.7325
lradius 31.6007
lwrist 9.34694
lhand -31.1462 16.1418
lfingers 7.12502
lthumb -4.42431 46.0756
rfemur -19.1117 2.91499 28.4737
rtibia 29.7788
rfoot -6.76357 -4.05633
rtoes 12.4558
lfemur -1.42968 -0.836944 -16.3476
ltibia 60.316
lfoot 13.8225 -14.1961
ltoes 4.57757
